<?xml version="1.0" standalone="no"?>
<!DOCTYPE svg PUBLIC "-//W3C//DTD SVG 20010904//EN"
 "http://www.w3.org/TR/2001/REC-SVG-20010904/DTD/svg10.dtd">
<svg version="1.0" xmlns="http://www.w3.org/2000/svg"
 width="256.000000pt" height="256.000000pt" viewBox="0 0 256.000000 256.000000"
 preserveAspectRatio="xMidYMid meet">
<metadata>
Created by potrace 1.11, written by Peter Selinger 2001-2013
</metadata>
<g transform="translate(0.000000,256.000000) scale(0.100000,-0.100000)"
fill="#000000" stroke="none">
<path d="M1587 2415 c-97 -16 -200 -48 -283 -85 -64 -30 -218 -122 -241 -145
-7 -7 -18 -15 -25 -17 -10 -4 43 -90 99 -158 6 -8 20 -26 30 -39 l19 -23 70
46 c86 59 187 107 284 137 63 20 96 23 205 23 110 -1 139 -4 190 -24 161 -61
256 -194 256 -357 0 -146 -90 -261 -273 -348 -90 -43 -125 -75 -134 -121 -8
-44 11 -106 38 -123 10 -6 59 -32 107 -57 181 -93 262 -200 262 -344 -1 -73
-7 -104 -37 -166 -93 -196 -377 -273 -654 -179 -69 24 -223 102 -228 116 -2 5
-8 9 -14 9 -5 0 -25 12 -44 26 -19 15 -36 25 -38 23 -17 -17 -156 -204 -156
-209 0 -4 11 -13 25 -20 14 -7 25 -17 25 -22 0 -4 6 -8 14 -8 8 0 16 -3 18 -8
2 -4 26 -22 53 -39 398 -250 884 -236 1135 33 49 52 110 137 110 151 0 5 8 27
19 49 47 99 60 262 29 382 -21 82 -44 132 -91 202 -32 46 -135 150 -150 150
-4 0 23 30 61 68 126 123 167 200 192 357 20 122 -4 253 -67 379 -44 88 -171
217 -258 262 -161 84 -352 112 -548 79z"/>
<path d="M663 1825 c-142 -141 -285 -279 -317 -308 -32 -29 -64 -57 -70 -62
-17 -16 -149 -116 -197 -149 l-42 -30 24 -15 c34 -22 217 -162 258 -197 19
-16 133 -127 255 -247 287 -284 358 -350 366 -340 3 4 39 52 79 105 65 87 72
100 60 115 -24 30 -462 466 -527 524 l-62 55 92 86 c67 62 455 447 516 513 8
7 -149 205 -162 205 -8 0 -131 -115 -273 -255z"/>
</g>
</svg>
