<?xml version="1.0" encoding="UTF-8" standalone="no"?>
<svg width="353px" height="131px" viewBox="0 0 353 131" version="1.1" xmlns="http://www.w3.org/2000/svg" xmlns:xlink="http://www.w3.org/1999/xlink" xmlns:sketch="http://www.bohemiancoding.com/sketch/ns">
    <!-- Generator: Sketch 3.5.1 (25234) - http://www.bohemiancoding.com/sketch -->
    <title>3point81logo</title>
    <desc>Created with Sketch.</desc>
    <defs></defs>
    <g id="Page-1" stroke="none" stroke-width="1" fill="none" fill-rule="evenodd" sketch:type="MSPage">
        <g id="3point81logo" sketch:type="MSLayerGroup" fill="#ED1C24">
            <g id="Group" sketch:type="MSShapeGroup">
                <path d="M121.2,65.7 C134.5,55.9 136.9,43.8 136.1,34.4 C134.5,15.1 118.6,1.4 97.5,1 L96.4,1 C89,1 77.9,3 68.5,8 C63.8,10.5 59.8,13.2 56,16.1 L64.7,27.6 C67.1,25.8 69.7,24 73,22.2 C81.8,17.4 89.1,15.6 97.2,15.7 C110.7,15.9 120.4,23.9 121.3,35.6 C121.9,42.1 120.5,51.6 102.6,59.1 C100,60.2 98.2,62.7 98.1,65.6 C98.2,68.4 100,71 102.6,72.1 C120.5,79.6 121.8,89.1 121.3,95.6 C120.3,107.3 110.6,115.2 97.2,115.5 C89.1,115.7 81.7,113.9 73,109 C69.5,107 66.7,105.2 64.2,103.2 L55.5,114.7 C59.5,117.8 63.7,120.6 68.5,123.2 C77.8,128.2 88.9,130.2 96.4,130.2 L97.5,130.2 C118.6,129.8 134.5,116.1 136.1,96.8 C136.9,87.6 134.5,75.5 121.2,65.7 L121.2,65.7 Z" id="Shape"></path>
                <path d="M53.6,93.5 C52.8,92.7 46.5,86.4 44.3,84.1 C37.8,77.5 31.8,71.5 25.1,65.7 L25.1,65.7 L25.1,65.7 L25.1,65.7 C31.8,59.9 37.8,53.9 44.3,47.3 C46.5,45 52.9,38.7 53.6,37.9 C55.8,35.7 57.7,33.7 59.6,32 L50.8,20.3 C47.5,23.2 44.2,26.3 40.8,29.8 C26.5,44 16.6,55.2 0.5,65.7 C16.6,76.2 26.5,87.4 40.8,101.6 C44.1,104.9 47.2,107.9 50.4,110.7 L59.2,99 C57.4,97.3 55.6,95.5 53.6,93.5 L53.6,93.5 Z" id="Shape"></path>
                <path d="M257,65.7 L253.9,64 L256.9,62.1 C266.7,55.8 271.5,46.8 271.5,34.6 C271.5,25 267.9,17.2 260.6,10.5 C253.3,3.9 244.1,0.6 233.4,0.6 C222.7,0.6 213.6,4 206.4,10.6 C199.2,17.3 195.7,25.4 195.7,35.4 C195.7,46.8 200.6,55.5 210.7,62.1 L213.5,63.9 L210.6,65.6 C199.8,72.2 194.6,81.4 194.6,93.7 C194.6,104.7 198.3,113.7 205.5,120.5 C212.7,127.3 222.1,130.8 233.4,130.8 C244.8,130.8 254.4,127.3 261.7,120.4 C269.1,113.4 272.8,104.8 272.8,94.1 C272.7,80.9 267.6,71.6 257,65.7 L257,65.7 Z M211.8,34.9 C211.8,23.1 221.6,13.5 233.7,13.5 C245.8,13.5 255.6,23.1 255.6,34.9 C255.6,46.7 245.8,56.3 233.7,56.3 C221.6,56.3 211.8,46.8 211.8,34.9 L211.8,34.9 Z M233.6,117.4 C220.6,117.4 210.1,107.1 210.1,94.4 C210.1,81.7 220.6,71.4 233.6,71.4 C246.6,71.4 257.1,81.7 257.1,94.4 C257.1,107.1 246.6,117.4 233.6,117.4 L233.6,117.4 Z" id="Shape"></path>
                <path d="M306.1,130.8 C303.1,130.8 299.4,129.2 299.4,123.9 C299.4,120.5 300.4,116.4 307.5,116.4 L318.5,116.4 L318.5,21.8 L307,26.9 C303,28.7 300.5,27.1 299.1,25.8 C297.8,24.5 297.1,22.9 297.1,20.9 C297.1,18.7 298.2,16.2 303,14.2 L325.2,3.6 C327.5,2.3 328.9,2.3 328.9,2.3 C333,2.1 333.8,4.5 333.8,9 L333.8,116.4 L344.1,116.4 C350.3,116.4 352.3,119.6 352.3,124.1 C352.3,129 347.7,130.8 344.7,130.8 L306.1,130.8 L306.1,130.8 Z" id="Shape"></path>
                <circle id="Oval" cx="165.3" cy="118.2" r="12.6"></circle>
            </g>
        </g>
    </g>
</svg>